{"title":"Battleship (2012) XviD - Ita DTS 5.1 Eng Ac3 5.1 - Sub Ita Eng","uid":8455754,"size":2056824771,"categoryP":"video","categoryS":"movies","magnet":"?xt=urn:btih:3d49f7503d13841228998bb2808f94cbd1686366&amp;dn=Battleship+%282012%29+XviD+-+Ita+DTS+5.1+Eng+Ac3+5.1+-+Sub+Ita+Eng&amp;tr=udp%3A%2F%2Ftracker.openbittorrent.com%3A80&amp;tr=udp%3A%2F%2Fopen.demonii.com%3A1337&amp;tr=udp%3A%2F%2Ftracker.coppersurfer.tk%3A6969&amp;tr=udp%3A%2F%2Fexodus.desync.com%3A6969","seeders":9,"leechers":2,"uploader":"nightsmusic","files":3,"time":1368060763,"description":"\nGeneral\nComplete name : F:Battleship (2012)Battleship (2012).avi\nFormat : AVI\nFormat/Info : Audio Video Interleave\nFile size : 1.90 GiB\nDuration : 2h 5mn\nOverall bit rate : 2 165 Kbps\nWriting application : VirtualDubMod 1.5.4.1 (build 2178/release)\nWriting library : VirtualDubMod build 2178/release\n\nVideo\nID : 0\nFormat : MPEG-4 Visual\nFormat profile : Advanced Simple@L5\nFormat settings, BVOP : Yes\nFormat settings, QPel : No\nFormat settings, GMC : No warppoints\nFormat settings, Matrix : Custom\nCodec ID : XVID\nCodec ID/Hint : XviD\nDuration : 2h 5mn\nBit rate : 1 178 Kbps\nWidth : 720 pixels\nHeight : 304 pixels\nDisplay aspect ratio : 2.35:1\nFrame rate : 25.000 fps\nColor space : YUV\nChroma subsampling : 4:2:0\nBit depth : 8 bits\nScan type : Progressive\nBits/(Pixel*Frame) : 0.215\nStream size : 1.04 GiB (54%)\nWriting library : XviD 1.2.1 (UTC 2008-12-04)\n\nAudio #1\nID : 1\nFormat : DTS\nFormat/Info : Digital Theater Systems\nCodec ID : 2001\nCodec ID/Info : Digital Theater Systems\nDuration : 2h 5mn\nBit rate mode : Constant\nBit rate : 755 Kbps\nChannel(s) : 6 channels\nChannel positions : Front: L C R, Side: L R, LFE\nSampling rate : 48.0 KHz\nBit depth : 24 bits\nStream size : 679 MiB (35%)\nAlignment : Split accross interleaves\nInterleave, duration : 96 ms (2.40 video frames)\nInterleave, preload duration : 96 ms\nLanguage : Italian\n\nAudio #2\nID : 2\nFormat : AC-3\nFormat/Info : Audio Coding 3\nMode extension : CM (complete main)\nCodec ID : 2000\nDuration : 2h 5mn\nBit rate mode : Constant\nBit rate : 224 Kbps\nChannel(s) : 6 channels\nChannel positions : Front: L C R, Side: L R, LFE\nSampling rate : 48.0 KHz\nBit depth : 16 bits\nStream size : 202 MiB (10%)\nAlignment : Aligned on interleaves\nInterleave, duration : 96 ms (2.40 video frames)\nInterleave, preload duration : 96 ms\nLanguage : English","torrent":{"xt":"urn:btih:3d49f7503d13841228998bb2808f94cbd1686366","amp;dn":"Battleship+%282012%29+XviD+-+Ita+DTS+5.1+Eng+Ac3+5.1+-+Sub+Ita+Eng","amp;tr":["udp%3A%2F%2Ftracker.openbittorrent.com%3A80","udp%3A%2F%2Fopen.demonii.com%3A1337","udp%3A%2F%2Ftracker.coppersurfer.tk%3A6969","udp%3A%2F%2Fexodus.desync.com%3A6969"],"infoHash":"3d49f7503d13841228998bb2808f94cbd1686366","infoHashBuffer":{"type":"Buffer","data":[61,73,247,80,61,19,132,18,40,153,139,178,128,143,148,203,209,104,99,102]},"announce":[],"urlList":[]}}